Coordinates
version=1
nRows=23
nColumns=28
inDegrees=yes

Units are S.I. units (second, meters, Newtons, ...)
Angles are in degrees.

endheader
time	pelvis_tilt	pelvis_list	pelvis_rotation	pelvis_tx	pelvis_ty	pelvis_tz	hip_flexion_r	hip_adduction_r	hip_rotation_r	knee_angle_r	ankle_angle_r	subtalar_angle_r	mtp_angle_r	hip_flexion_l	hip_adduction_l	hip_rotation_l	knee_angle_l	socket_flexion	socket_adduction	socket_rotation	socket_tx	socket_ty	socket_tz	foot_flex	lumbar_extension	lumbar_bending	lumbar_rotation
      0.95000000	      7.01264744	      0.96538014	     -3.36360342	      0.43795147	      1.04185635	      0.30262248	     -2.40642848	      1.60887224	     -5.87577647	    -17.82915495	     13.42100701	     -1.23273839	     10.02236089	      3.25218860	      0.53164139	     -1.52452633	    -53.56066527	      0.00000000	      0.00000000	      0.00000000	      0.00000000	      0.00000000	      0.00000000	      0.49824873	    -14.53167854	     -1.58739058	      5.63572800
      0.95416667	      6.97950967	      1.08092397	     -3.60250998	      0.44266108	      1.04254321	      0.30310781	     -2.81516523	      1.43632878	     -5.87765431	    -17.49021208	     13.35662777	     -0.90513130	     10.09923736	      3.79149918	      0.67141840	     -1.48581069	    -53.03487661	      0.00000000	      0.00000000	      0.00000000	      0.00000000	      0.00000000	      0.00000000	      0.48246029	    -14.51465154	     -1.76296708	      5.83044572
      0.95833333	      6.94251020	      1.17956321	     -3.83323066	      0.44732972	      1.04318293	      0.30357976	     -3.21055616	      1.28321034	     -5.87604569	    -17.16445737	     13.29525364	     -0.59336816	     10.17444136	      4.32556970	      0.79186901	     -1.42402559	    -52.47342943	      0.00000000	      0.00000000	      0.00000000	      0.00000000	      0.00000000	      0.00000000	      0.46296656	    -14.49663162	     -1.92258326	      6.01032340
      0.96250000	      6.89805069	      1.26114166	     -4.05823430	      0.45200440	      1.04376624	      0.30400933	     -3.59243097	      1.14681129	     -5.87297088	    -16.85047157	     13.23520040	     -0.30538538	     10.24258890	      4.85314027	      0.89653287	     -1.34132675	    -51.87100601	      0.00000000	      0.00000000	      0.00000000	      0.00000000	      0.00000000	      0.00000000	      0.44596950	    -14.47298204	     -2.05026886	      6.17554554
      0.96666667	      6.84992775	      1.33510925	     -4.27909370	      0.45660121	      1.04430217	      0.30444993	     -3.96648214	      1.02048623	     -5.86602535	    -16.53016464	     13.16157873	     -0.00385183	     10.31491249	      5.38616599	      0.98732671	     -1.25174353	    -51.25661955	      0.00000000	      0.00000000	      0.00000000	      0.00000000	      0.00000000	      0.00000000	      0.42048194	    -14.44859770	     -2.18242724	      6.34806871
      0.97083333	      6.80862234	      1.37380891	     -4.49620546	      0.46113642	      1.04478515	      0.30483990	     -4.30463239	      0.92445297	     -5.86883387	    -16.30920322	     13.11558425	      0.20350136	     10.36530774	      5.89719010	      1.04376600	     -1.13433576	    -50.60257549	      0.00000000	      0.00000000	      0.00000000	      0.00000000	      0.00000000	      0.00000000	      0.41778305	    -14.45088539	     -2.23201929	      6.47091789
      0.97500000	      6.79868732	      1.35889994	     -4.70703348	      0.46517094	      1.04513644	      0.30528027	     -4.57247404	      0.88759113	     -5.91970045	    -16.23699984	     13.10868091	      0.26551536	     10.37946434	      6.46551192	      1.01963023	     -1.05565052	    -50.08151158	      0.00000000	      0.00000000	      0.00000000	      0.00000000	      0.00000000	      0.00000000	      0.44779137	    -14.60751779	     -2.26752954	      6.50684043
      0.97916667	      6.68581411	      1.44211566	     -4.91258496	      0.47022397	      1.04556316	      0.30568415	     -4.99403481	      0.76079164	     -5.83625771	    -15.72358493	     13.02023036	      0.62111195	     10.43505829	      6.92401783	      1.13203030	     -0.85585491	    -49.20662753	      0.00000000	      0.00000000	      0.00000000	      0.00000000	      0.00000000	      0.00000000	      0.37281898	    -14.39527364	     -2.38323341	      6.69501217
      0.98333333	      6.59811034	      1.47841162	     -5.10518608	      0.47485786	      1.04586814	      0.30607132	     -5.35191032	      0.68566052	     -5.79429657	    -15.35856606	     12.90819991	      0.93776966	     10.49630461	      7.44515758	      1.17651776	     -0.69831647	    -48.46218876	      0.00000000	      0.00000000	      0.00000000	      0.00000000	      0.00000000	      0.00000000	      0.33257455	    -14.33928417	     -2.47920278	      6.88582022
      0.98750000	      6.57738615	      1.44557501	     -5.30407356	      0.47883179	      1.04606307	      0.30647953	     -5.59811636	      0.66329217	     -5.83571951	    -15.30053447	     12.89484369	      1.00341837	     10.51325915	      7.99153078	      1.12475817	     -0.58502249	    -47.84699173	      0.00000000	      0.00000000	      0.00000000	      0.00000000	      0.00000000	      0.00000000	      0.36719474	    -14.48747844	     -2.49187508	      6.93021224
      0.99166667	      6.40732006	      1.50021403	     -5.46610059	      0.48396666	      1.04627619	      0.30686779	     -6.02070324	      0.58965581	     -5.72543927	    -14.66580352	     12.66791722	      1.56510693	     10.66070544	      8.48364023	      1.18860838	     -0.34885854	    -46.92018866	      0.00000000	      0.00000000	      0.00000000	      0.00000000	      0.00000000	      0.00000000	      0.27252475	    -14.20904630	     -2.60279694	      7.31145340
      0.99583333	      6.35144220	      1.45050774	     -5.67117531	      0.48829468	      1.04643567	      0.30720025	     -6.27656108	      0.57974461	     -5.74099212	    -14.56508311	     12.65477684	      1.67504661	     10.71430581	      8.94292707	      1.13747108	     -0.14860497	    -46.10189161	      0.00000000	      0.00000000	      0.00000000	      0.00000000	      0.00000000	      0.00000000	      0.27748621	    -14.22944637	     -2.56385043	      7.39714562
      1.00000000	      6.25132770	      1.42317964	     -5.85231197	      0.49282440	      1.04651579	      0.30756687	     -6.58114026	      0.56912684	     -5.70936799	    -14.28257637	     12.61647537	      1.86982200	     10.78077305	      9.42821716	      1.10265920	      0.07789809	    -45.25629069	      0.00000000	      0.00000000	      0.00000000	      0.00000000	      0.00000000	      0.00000000	      0.23783259	    -14.17687113	     -2.57039169	      7.52295014
      1.00416667	      6.09713805	      1.39059635	     -5.98118629	      0.49740176	      1.04648225	      0.30792389	     -6.89843262	      0.59164133	     -5.63311594	    -13.85500389	     12.45244447	      2.17576555	     10.92192454	      9.96808033	      1.05056900	      0.33616347	    -44.40648884	      0.00000000	      0.00000000	      0.00000000	      0.00000000	      0.00000000	      0.00000000	      0.20646704	    -14.04927636	     -2.58150598	      7.76073558
      1.00833333	      6.02865783	      1.31382907	     -6.17499597	      0.50168689	      1.04647590	      0.30826583	     -7.12787583	      0.61369240	     -5.63853964	    -13.78113262	     12.44738803	      2.23888001	     10.96502279	     10.40439732	      0.95666896	      0.57721182	    -43.52015655	      0.00000000	      0.00000000	      0.00000000	      0.00000000	      0.00000000	      0.00000000	      0.20944563	    -14.06745575	     -2.52210732	      7.81536040
      1.01250000	      5.88330551	      1.25375317	     -6.30137138	      0.50629316	      1.04637102	      0.30858637	     -7.44272687	      0.66915271	     -5.56127743	    -13.40460177	     12.39781149	      2.42741955	     11.04567084	     10.89775862	      0.87870009	      0.86892314	    -42.61310046	      0.00000000	      0.00000000	      0.00000000	      0.00000000	      0.00000000	      0.00000000	      0.13075253	    -13.94235247	     -2.48242696	      7.94969292
      1.01666667	      5.78116280	      1.16825140	     -6.46374921	      0.51059934	      1.04622586	      0.30893202	     -7.68101453	      0.72116934	     -5.53226181	    -13.24350646	     12.35929247	      2.51434249	     11.09132344	     11.35558727	      0.76475276	      1.15155558	    -41.70537833	      0.00000000	      0.00000000	      0.00000000	      0.00000000	      0.00000000	      0.00000000	      0.13242969	    -13.92048026	     -2.41239198	      8.02635547
      1.02083333	      5.53965608	      1.06176559	     -6.51583929	      0.51514890	      1.04589421	      0.30914724	     -7.96489298	      0.85664342	     -5.39161411	    -12.70082265	     12.13999066	      2.65494427	     11.22505396	     11.96953297	      0.62251844	      1.51516502	    -40.82604063	      0.00000000	      0.00000000	      0.00000000	      0.00000000	      0.00000000	      0.00000000	      0.10124357	    -13.72328734	     -2.28976474	      8.23083935
      1.02500000	      5.43219573	      0.94982814	     -6.66556313	      0.51946038	      1.04564336	      0.30955468	     -8.18887634	      0.95153795	     -5.35698778	    -12.58339036	     12.12834681	      2.67133132	     11.28433118	     12.40627300	      0.46618423	      1.80617279	    -39.88492342	      0.00000000	      0.00000000	      0.00000000	      0.00000000	      0.00000000	      0.00000000	      0.05837063	    -13.68304288	     -2.21395771	      8.27907123
      1.02916667	      5.09256053	      0.75911954	     -6.70623232	      0.52398639	      1.04512072	      0.30976754	     -8.36712497	      1.21425279	     -5.09318610	    -12.07271465	     11.75058892	      2.34648955	     11.56521007	     13.09926320	      0.21732043	      2.22497819	    -38.98185225	      0.00000000	      0.00000000	      0.00000000	      0.00000000	      0.00000000	      0.00000000	      0.02561342	    -13.38661504	     -2.00275905	      8.40143395
      1.03333333	      4.99453952	      0.65073863	     -6.85762760	      0.52827818	      1.04479220	      0.31014674	     -8.60062017	      1.29667346	     -5.03956737	    -11.95518423	     11.79728736	      2.36788982	     11.62307193	     13.50183741	      0.05882549	      2.52726119	    -38.00046824	      0.00000000	      0.00000000	      0.00000000	      0.00000000	      0.00000000	      0.00000000	      0.00496341	    -13.37667574	     -1.91541305	      8.43400264
      1.03750000	      4.78032609	      0.48334268	     -6.89054935	      0.53276266	      1.04431872	      0.31037155	     -8.89245975	      1.50698796	     -4.86338708	    -11.49826540	     11.70458878	      2.37351671	     11.72100257	     14.03890516	     -0.15552998	      2.94226554	    -37.05950922	      0.00000000	      0.00000000	      0.00000000	      0.00000000	      0.00000000	      0.00000000	     -0.03852171	    -13.22283947	     -1.73989143	      8.52636479
      1.04166667	      4.69095889	      0.35509876	     -7.04526752	      0.53702355	      1.04389181	      0.31079262	     -9.09584495	      1.60660119	     -4.86526258	    -11.46754280	     11.71119945	      2.36428409	     11.74640296	     14.41509014	     -0.35134007	      3.22900765	    -36.06681310	      0.00000000	      0.00000000	      0.00000000	      0.00000000	      0.00000000	      0.00000000	     -0.03495868	    -13.23338140	     -1.65089427	      8.54366698
